<svg xmlns="http://www.w3.org/2000/svg" viewBox="-30 0 512 512">
  <defs/>
  <path d="M361 307a143.4 143.4 0 00-106.6-108.8A112.2 112.2 0 00182.1 0a112.5 112.5 0 00-72.3 198.2A143.2 143.2 0 000 337.2v111.5h254.1A103 103 0 10360.9 307zM100 112.5a82 82 0 01164 0 82.1 82.1 0 01-164 0zm146.2 296.8c0 3 .1 6.1.4 9.2H30.4v-81.1c0-62.1 50.5-112.6 112.5-112.6h78.3c52 0 96 35.4 108.8 83.4a103 103 0 00-83.8 101zM349 481.6a72.5 72.5 0 11.2-145 72.5 72.5 0 01-.2 145zm0 0"/>
  <path d="M364.2 366.7h-30.4V394h-27.3v30.4h27.3v27.3h30.4v-27.3h27.3V394h-27.3zm0 0"/>
</svg>
