<svg xmlns="http://www.w3.org/2000/svg" id="Capa_1" x="0" y="0" version="1.1" viewBox="0 0 512 512" xml:space="preserve">
  <defs/>
  <path d="M503.4 228.9l-43.3-39.4V58.8a15 15 0 00-15-15H341a15 15 0 00-15 15v8.4l-52.3-47.6a26.1 26.1 0 00-35.4 0L8.6 228.9a26 26 0 00-6.8 28.9 26 26 0 0024.5 16.7H63v209.8a15 15 0 0015 15h126a15 15 0 0015-15V356.9h74v127.4a15 15 0 0015 15h126a15 15 0 0015-15V274.5h36.7a26 26 0 0024.5-16.7 26 26 0 00-6.8-29zM434 244.4a15 15 0 00-15 15v209.8H323V342a15 15 0 00-15-15H203.9a15 15 0 00-15 15v127.3H93V259.5a15 15 0 00-15-15H36.1L256 44.1l74.8 68.2a15 15 0 0025.2-11.1V73.8h74v122.3a15 15 0 005 11.2l40.8 37.1H434z"/>
</svg>
