<svg xmlns="http://www.w3.org/2000/svg" id="Capa_1" x="0" y="0" version="1.1" xml:space="preserve" viewBox="0 0 438.5 438.5">
  <defs/>
  <path d="M421.1 134.2a221.1 221.1 0 00-46.8-70A221.3 221.3 0 00219.3 0a221.6 221.6 0 00-151 60.5L31 23.7c-5.7-6-12.3-7.2-19.7-4C3.8 22.9 0 28.6 0 36.5v128c0 4.9 1.8 9.2 5.4 12.8 3.6 3.6 8 5.4 12.9 5.4h127.9c8 0 13.6-3.8 16.8-11.4 3.3-7.4 2-14-4-19.7l-39-39.4a145 145 0 01156-27.6c18 7.8 33.5 18.2 46.6 31.3a147.3 147.3 0 0142.9 103.4 147.3 147.3 0 01-42.8 103.4 147.3 147.3 0 01-103.4 42.7 144 144 0 01-115.4-56.8c-1.3-1.9-3.5-3-6.5-3.4-2.9 0-5.3.9-7.2 2.6l-39 39.4a8.5 8.5 0 00-2.5 5.8c-.1 2.4.5 4.5 1.8 6.4a217.8 217.8 0 00253.8 61.7c27-11.6 50.4-27.2 70-46.8a221.3 221.3 0 0064.2-155c0-29.7-5.8-58-17.4-85.1z"/>
</svg>
